<?xml version="1.0" standalone="no"?>
<svg xmlns:xlink="http://www.w3.org/1999/xlink" id="wave" style="transform:rotate(0deg); transition: 0.3s" viewBox="0 0 1440 490" version="1.1" xmlns="http://www.w3.org/2000/svg"><defs><linearGradient id="sw-gradient-0" x1="0" x2="0" y1="1" y2="0"><stop stop-color="rgba(255, 255, 255, 0)" offset="0%"/><stop stop-color="rgba(230.311, 230.311, 230.311, 1)" offset="100%"/></linearGradient></defs><path style="transform:translate(0, 0px); opacity:1" fill="url(#sw-gradient-0)" d="M0,0L48,0C96,0,192,0,288,24.5C384,49,480,98,576,163.3C672,229,768,310,864,302.2C960,294,1056,196,1152,179.7C1248,163,1344,229,1440,253.2C1536,278,1632,261,1728,285.8C1824,310,1920,376,2016,334.8C2112,294,2208,147,2304,73.5C2400,0,2496,0,2592,65.3C2688,131,2784,261,2880,310.3C2976,359,3072,327,3168,277.7C3264,229,3360,163,3456,155.2C3552,147,3648,196,3744,228.7C3840,261,3936,278,4032,285.8C4128,294,4224,294,4320,310.3C4416,327,4512,359,4608,310.3C4704,261,4800,131,4896,98C4992,65,5088,131,5184,130.7C5280,131,5376,65,5472,89.8C5568,114,5664,229,5760,294C5856,359,5952,376,6048,334.8C6144,294,6240,196,6336,130.7C6432,65,6528,33,6624,65.3C6720,98,6816,196,6864,245L6912,294L6912,490L6864,490C6816,490,6720,490,6624,490C6528,490,6432,490,6336,490C6240,490,6144,490,6048,490C5952,490,5856,490,5760,490C5664,490,5568,490,5472,490C5376,490,5280,490,5184,490C5088,490,4992,490,4896,490C4800,490,4704,490,4608,490C4512,490,4416,490,4320,490C4224,490,4128,490,4032,490C3936,490,3840,490,3744,490C3648,490,3552,490,3456,490C3360,490,3264,490,3168,490C3072,490,2976,490,2880,490C2784,490,2688,490,2592,490C2496,490,2400,490,2304,490C2208,490,2112,490,2016,490C1920,490,1824,490,1728,490C1632,490,1536,490,1440,490C1344,490,1248,490,1152,490C1056,490,960,490,864,490C768,490,672,490,576,490C480,490,384,490,288,490C192,490,96,490,48,490L0,490Z"/><defs><linearGradient id="sw-gradient-1" x1="0" x2="0" y1="1" y2="0"><stop stop-color="rgba(255, 255, 255, 0)" offset="0%"/><stop stop-color="rgba(200.713, 200.713, 200.713, 1)" offset="100%"/></linearGradient></defs><path style="transform:translate(0, 50px); opacity:0.9" fill="url(#sw-gradient-1)" d="M0,0L48,49C96,98,192,196,288,236.8C384,278,480,261,576,220.5C672,180,768,114,864,73.5C960,33,1056,16,1152,57.2C1248,98,1344,196,1440,212.3C1536,229,1632,163,1728,138.8C1824,114,1920,131,2016,114.3C2112,98,2208,49,2304,65.3C2400,82,2496,163,2592,171.5C2688,180,2784,114,2880,130.7C2976,147,3072,245,3168,253.2C3264,261,3360,180,3456,187.8C3552,196,3648,294,3744,285.8C3840,278,3936,163,4032,138.8C4128,114,4224,180,4320,179.7C4416,180,4512,114,4608,73.5C4704,33,4800,16,4896,8.2C4992,0,5088,0,5184,57.2C5280,114,5376,229,5472,228.7C5568,229,5664,114,5760,89.8C5856,65,5952,131,6048,179.7C6144,229,6240,261,6336,253.2C6432,245,6528,196,6624,220.5C6720,245,6816,343,6864,392L6912,441L6912,490L6864,490C6816,490,6720,490,6624,490C6528,490,6432,490,6336,490C6240,490,6144,490,6048,490C5952,490,5856,490,5760,490C5664,490,5568,490,5472,490C5376,490,5280,490,5184,490C5088,490,4992,490,4896,490C4800,490,4704,490,4608,490C4512,490,4416,490,4320,490C4224,490,4128,490,4032,490C3936,490,3840,490,3744,490C3648,490,3552,490,3456,490C3360,490,3264,490,3168,490C3072,490,2976,490,2880,490C2784,490,2688,490,2592,490C2496,490,2400,490,2304,490C2208,490,2112,490,2016,490C1920,490,1824,490,1728,490C1632,490,1536,490,1440,490C1344,490,1248,490,1152,490C1056,490,960,490,864,490C768,490,672,490,576,490C480,490,384,490,288,490C192,490,96,490,48,490L0,490Z"/><defs><linearGradient id="sw-gradient-2" x1="0" x2="0" y1="1" y2="0"><stop stop-color="rgba(255, 255, 255, 0)" offset="0%"/><stop stop-color="rgba(173.391, 173.391, 173.391, 1)" offset="100%"/></linearGradient></defs><path style="transform:translate(0, 100px); opacity:0.8" fill="url(#sw-gradient-2)" d="M0,196L48,179.7C96,163,192,131,288,147C384,163,480,229,576,228.7C672,229,768,163,864,147C960,131,1056,163,1152,163.3C1248,163,1344,131,1440,106.2C1536,82,1632,65,1728,65.3C1824,65,1920,82,2016,138.8C2112,196,2208,294,2304,285.8C2400,278,2496,163,2592,171.5C2688,180,2784,310,2880,367.5C2976,425,3072,408,3168,375.7C3264,343,3360,294,3456,261.3C3552,229,3648,212,3744,236.8C3840,261,3936,327,4032,351.2C4128,376,4224,359,4320,310.3C4416,261,4512,180,4608,187.8C4704,196,4800,294,4896,351.2C4992,408,5088,425,5184,408.3C5280,392,5376,343,5472,277.7C5568,212,5664,131,5760,98C5856,65,5952,82,6048,106.2C6144,131,6240,163,6336,212.3C6432,261,6528,327,6624,359.3C6720,392,6816,392,6864,392L6912,392L6912,490L6864,490C6816,490,6720,490,6624,490C6528,490,6432,490,6336,490C6240,490,6144,490,6048,490C5952,490,5856,490,5760,490C5664,490,5568,490,5472,490C5376,490,5280,490,5184,490C5088,490,4992,490,4896,490C4800,490,4704,490,4608,490C4512,490,4416,490,4320,490C4224,490,4128,490,4032,490C3936,490,3840,490,3744,490C3648,490,3552,490,3456,490C3360,490,3264,490,3168,490C3072,490,2976,490,2880,490C2784,490,2688,490,2592,490C2496,490,2400,490,2304,490C2208,490,2112,490,2016,490C1920,490,1824,490,1728,490C1632,490,1536,490,1440,490C1344,490,1248,490,1152,490C1056,490,960,490,864,490C768,490,672,490,576,490C480,490,384,490,288,490C192,490,96,490,48,490L0,490Z"/></svg>